<?xml version="1.0" encoding="UTF-8" standalone="no"?>
<!-- Created with Inkscape (http://www.inkscape.org/) -->

<svg
   width="210mm"
   height="297mm"
   viewBox="0 0 210 297"
   version="1.1"
   id="svg1"
   xml:space="preserve"
   inkscape:version="1.4.3 (0d15f75, 2025-12-25)"
   sodipodi:docname="logo.svg"
   xmlns:inkscape="http://www.inkscape.org/namespaces/inkscape"
   xmlns:sodipodi="http://sodipodi.sourceforge.net/DTD/sodipodi-0.dtd"
   xmlns="http://www.w3.org/2000/svg"
   xmlns:svg="http://www.w3.org/2000/svg"><sodipodi:namedview
     id="namedview1"
     pagecolor="#ffffff"
     bordercolor="#000000"
     borderopacity="0.25"
     inkscape:showpageshadow="2"
     inkscape:pageopacity="0.0"
     inkscape:pagecheckerboard="0"
     inkscape:deskcolor="#d1d1d1"
     inkscape:document-units="mm"
     inkscape:zoom="0.14717112"
     inkscape:cx="601.34082"
     inkscape:cy="771.2111"
     inkscape:window-width="1512"
     inkscape:window-height="916"
     inkscape:window-x="0"
     inkscape:window-y="38"
     inkscape:window-maximized="1"
     inkscape:current-layer="layer1" /><defs
     id="defs1" /><g
     inkscape:label="Layer 1"
     inkscape:groupmode="layer"
     id="layer1"><path
       style="fill:#000000"
       d="m 68.491027,314.4014 c -0.12935,-0.12935 -0.23518,-1.00247 -0.23518,-1.94028 v -1.70509 h -1.94028 -1.94028 v -1.94028 -1.94027 h 1.94028 1.94028 v 1.94027 1.94028 h 1.94028 1.94027 v 1.94028 1.94028 h -1.70509 c -0.9378,0 -1.81092,-0.10584 -1.94028,-0.23519 z m 4.35093,-1.70509 v -1.94028 h 1.76389 1.76389 v 1.94028 1.94028 h -1.76389 -1.76389 z m 3.88055,-3.88056 v -1.94027 h 1.94028 1.94028 v 1.94027 1.94028 h -1.94028 -1.94028 z m -20.81388,-4.23333 v -1.94028 h 1.94027 1.94028 v 1.94028 1.94028 h -1.94028 -1.94027 z m 4.23333,0 v -1.94028 h 1.94028 1.94027 v 1.94028 1.94028 h -1.94027 -1.94028 z m 20.81389,0 v -1.94028 h 1.94028 1.94027 v 1.94028 1.94028 h -1.94027 -1.94028 z m 4.23333,0 v -1.94028 h 1.94028 1.94027 v 1.94028 1.94028 h -1.94027 -1.94028 z m -37.39444,-4.23333 v -1.94028 h 1.94027 1.94028 v 1.94028 1.94028 h -1.94028 -1.94027 z m 4.23333,0 v -1.94028 h 1.94028 1.94028 v 1.94028 1.94028 h -1.94028 -1.94028 z m 37.11142,0.0882 0.10663,-1.85208 1.85209,-0.10663 1.85208,-0.10663 v 1.95871 1.95872 h -1.95871 -1.95872 z m 4.16358,-0.0882 v -1.94028 h 1.94028 1.94027 v 1.94028 1.94028 h -1.94027 -1.94028 z m -49.74167,-3.88056 v -1.94028 h 1.94028 1.94028 v 1.94028 1.94028 h -1.94028 -1.94028 z m 53.975,0 v -1.94028 h 1.94028 1.940283 v 1.94028 1.94028 h -1.940283 -1.94028 z m -62.08889,-4.23333 v -1.94028 h 1.94028 1.94028 v 1.94028 1.94028 h -1.94028 -1.94028 z m 4.23334,0 v -1.94028 h 1.94028 1.94027 v 1.94028 1.94028 h -1.94027 -1.94028 z m 61.736113,0 v -1.94028 h 1.94027 1.94028 v 1.94028 1.94028 h -1.94028 -1.94027 z m 4.23333,0 v -1.94028 h 1.94028 1.94028 v 1.94028 1.94028 h -1.94028 -1.94028 z m -74.436113,-3.84791 v -1.90763 l 1.94076,-0.12084 1.94076,-0.12084 -4.8e-4,2.02847 -4.8e-4,2.02847 h -1.94028 -1.94028 z m 12.34722,-0.18822 c 0,-0.95868 0.17002,-1.84814 0.37783,-1.97657 0.2078,-0.12843 1.08093,-0.12807 1.94028,7.9e-4 l 1.56245,0.23431 v 1.74227 1.74227 h -1.94028 -1.94028 z m 4.23334,-0.0208 v -1.76388 h 1.94027 1.94028 v 1.76388 1.76389 h -1.94028 -1.94027 z m 45.50833,0 v -1.76388 h 1.94028 1.94027 v 1.76388 1.76389 h -1.94027 -1.94028 z m 4.23333,0.0216 v -1.74227 l 1.56245,-0.23431 c 0.85935,-0.12886 1.732483,-0.12922 1.940283,-7.9e-4 0.20781,0.12843 0.37783,1.01789 0.37783,1.97657 v 1.74307 h -1.940283 -1.94028 z m 12.347223,-0.21644 v -1.95871 l 1.85209,0.10663 1.85208,0.10663 0.10663,1.85208 0.10663,1.85208 h -1.95871 -1.95872 z m -87.136103,-3.86212 v -1.94028 h 1.94027 1.94028 v 1.94028 1.94028 h -1.94028 -1.94027 z m 4.23333,0 v -1.94028 h 1.94028 1.94027 v 1.94028 1.94028 h -1.94027 -1.94028 z m 24.81479,0.003 0.056,-1.93742 2.02847,-0.003 2.02847,-0.003 v 1.94028 1.94028 h -2.08452 -2.08452 z m 4.46576,-0.003 v -1.94028 h 1.76389 1.76389 v 1.94028 1.94028 h -1.76389 -1.76389 z m 32.80833,0 v -1.94028 h 1.94028 1.94028 v 1.94028 1.94028 h -1.94028 -1.94028 z m 25.047233,0 v -1.94028 h 1.94027 1.94028 v 1.94028 1.94028 h -1.94028 -1.94027 z m 4.23333,0 v -1.94028 h 1.94028 1.94027 v 1.94028 1.94028 h -1.94027 -1.94028 z m -103.646073,-4.32153 0.1058,-2.02847 h 1.76388 1.76389 l 0.1058,2.02847 0.1058,2.02847 h -1.97549 -1.97548 z m 4.16274,0.10418 c 0,-1.90912 0.009,-1.92606 1.19949,-2.14932 2.21536,-0.4156 2.49312,-0.19763 2.61048,2.04857 l 0.1058,2.02504 h -1.95789 -1.95788 z m 41.275,-0.016 v -1.94028 h 1.94028 1.94027 v 1.94028 1.94027 h -1.94027 -1.94028 z m 4.23333,0 v -1.94028 h 1.94028 1.94028 v 1.94028 1.94027 h -1.94028 -1.94028 z m 12.34722,0 v -1.94028 h 1.94028 1.94028 v 1.94028 1.94027 h -1.94028 -1.94028 z m 4.23334,0 v -1.94028 h 1.94028 1.94027 v 1.94028 1.94027 h -1.94027 -1.94028 z m 4.23333,0 v -1.94028 h 1.94028 1.94027 v 1.94028 1.94027 h -1.94027 -1.94028 z m 37.041663,-0.19483 v -2.1351 l 1.85209,0.10663 1.85208,0.10663 0.1058,2.02847 0.1058,2.02847 h -1.95788 -1.95789 z m 4.23334,0 v -2.1351 l 1.85208,0.10663 1.85208,0.10663 0.1058,2.02847 0.1058,2.02847 h -1.95788 -1.95788 z M 6.166957,275.65464 v -1.94027 h -1.94028 -1.94028 v -2.11667 -2.11667 H 0.34612702 -1.594153 v -2.1351 -2.1351 l 1.85208002,0.10663 1.85208998,0.10663 0.10579,2.02847 0.1058,2.02847 h 1.92268 1.92267 v 2.11667 2.11667 h 1.94028 1.94028 v 1.94027 1.94028 h -1.94028 -1.94028 z m 4.23333,-2.11666 v -4.05695 h 1.94028 1.94028 v 4.05695 4.05694 h -1.94028 -1.94028 z m 2.91527,-0.072 c -0.43389,-0.0837 -1.22764,-0.0859 -1.76389,-0.005 -0.53624,0.0811 -0.18124,0.1496 0.7889,0.15225 0.97014,0.003 1.40888,-0.0637 0.97499,-0.14744 z m 54.94029,2.18861 v -1.94027 h -1.94028 -1.94028 v -2.11667 -2.11667 h 1.94028 1.94028 v 2.11667 2.11667 h 1.94028 1.94027 v 1.94027 1.94028 h -1.94027 -1.94028 z m 4.23333,0 v -1.94027 h 2.11667 2.11666 v -2.11667 -2.11667 h 1.94028 1.94028 v 2.11667 2.11667 h -1.94028 -1.94028 v 1.94027 1.94028 h -2.11666 -2.11667 z m 57.859493,-0.0882 c 0.0296,-1.11566 0.0409,-2.94129 0.025,-4.05695 l -0.0289,-2.02847 h -1.94027 -1.94028 v -2.1369 -2.1369 l 1.94028,0.10639 1.94027,0.10639 v 2.03051 2.03051 h 2.11667 2.11667 v 1.94028 1.94028 h -1.11713 c -0.61442,0 -1.02042,0.0967 -0.90221,0.21492 0.1182,0.1182 1.47928,0.19644 3.02461,0.17387 l 2.80969,-0.0411 0.12099,1.94328 0.12099,1.94327 -4.17009,-4.8e-4 -4.17009,-4.8e-4 z m 8.46273,-3.96875 v -2.11667 h 1.92267 1.92268 l 0.1058,-2.00509 0.10579,-2.00509 1.85209,-0.13795 1.85208,-0.13796 v 2.14305 2.14304 h -1.94028 -1.94027 v 2.11667 2.11667 h -1.94028 -1.94028 z m -144.568303,-4.14508 0.1058,-2.02847 h 1.76389 1.76389 l 0.1058,2.02847 0.1058,2.02847 h -1.97549 -1.97549 z m 20.39053,-0.0262 v -2.05468 l 1.85208,0.0722 1.85208,0.0722 0.1058,1.98248 0.1058,1.98249 h -1.95788 -1.95788 z m 4.23333,-0.0804 v -2.1351 l 1.85208,0.10663 1.85209,0.10663 0.1058,2.02847 0.1058,2.02847 h -1.95789 -1.95788 z m 37.04167,0.19482 v -1.94027 h 1.94027 1.94028 v 1.94027 1.94028 h -1.94028 -1.94027 z m 4.23333,0.0588 c 0,-1.03481 0.0658,-1.94763 0.14623,-2.02847 0.0804,-0.0808 0.99323,-0.0952 2.02847,-0.0318 l 1.88224,0.11516 -0.12084,1.91332 -0.12084,1.91331 h -1.90763 -1.90763 z m 20.6963,1.6463 c -0.12936,-0.12935 -0.23519,-1.00248 -0.23519,-1.94028 v -1.70509 h 2.11667 2.11666 v 1.94027 1.94028 h -1.88148 c -1.03481,0 -1.98731,-0.10583 -2.11666,-0.23518 z m 4.35092,-1.7051 v -1.94027 h 1.94028 1.94027 v 1.94027 1.94028 h -1.94027 -1.94028 z m 37.041663,0.0208 c 0,-1.0557 0.17003,-2.02453 0.37783,-2.15296 0.2078,-0.12843 1.08093,-0.12807 1.94028,7.9e-4 l 1.56245,0.23431 v 1.91866 1.91866 h -1.94028 -1.94028 z m 24.76504,-0.10901 0.1058,-2.02847 1.85208,-0.10663 1.85208,-0.10663 v 2.1351 2.1351 h -1.95788 -1.95788 z m -161.290033,-4.14515 v -1.94028 h 1.94028 1.94027 v 1.94028 1.94028 h -1.94027 -1.94028 z m 4.23333,0 v -1.94028 h 1.94028 1.94028 v 1.94028 1.94028 h -1.94028 -1.94028 z m 32.80834,0 v -1.94028 h 1.94027 1.94028 v 1.94028 1.94028 h -1.94028 -1.94027 z m 4.23333,0 v -1.94028 h 1.94028 1.94027 v 1.94028 1.94028 h -1.94027 -1.94028 z m 20.81389,0 v -1.94028 h 1.94027 1.94028 v 1.94028 1.94028 h -1.94028 -1.94027 z m 4.23333,0 v -1.94028 h 1.94028 1.94028 v 1.94028 1.94028 h -1.94028 -1.94028 z m 37.04166,0 v -1.94028 h 1.94028 1.94028 v 1.94028 1.94028 h -1.94028 -1.94028 z m 4.23334,0 v -1.94028 h 1.94028 1.94027 v 1.94028 1.94028 h -1.94027 -1.94028 z m 20.813893,0 v -1.94028 h 1.94027 1.94028 v 1.94028 1.94028 h -1.94028 -1.94027 z m 4.23333,0 v -1.94028 h 1.94028 1.94027 v 1.94028 1.94028 h -1.94027 -1.94028 z m 32.80833,0 v -1.94028 h 1.94028 1.94028 v 1.94028 1.94028 h -1.94028 -1.94028 z m 4.23334,0 v -1.94028 h 1.94027 1.94028 v 1.94028 1.94028 h -1.94028 -1.94027 z m -109.978473,-2.20036 -1.85209,-0.12957 v -1.89597 c 0,-1.50905 0.12599,-1.9289 0.61736,-2.05731 0.58797,-0.15365 0.58797,-0.16328 0,-0.20225 -0.50817,-0.0337 -0.61736,-0.3841 -0.61736,-1.98121 v -1.94027 h 1.94028 1.94028 v 4.23333 c 0,2.32833 -0.0397,4.20397 -0.0882,4.16808 -0.0485,-0.0359 -0.92163,-0.12357 -1.94028,-0.19483 z m -63.94097,-2.03297 v -1.94028 h 1.94027 1.94028 v 1.94028 1.94028 h -1.94028 -1.94027 z m 49.74166,0 v -1.94028 h 1.94028 1.94028 v 1.94028 1.94028 h -1.94028 -1.94028 z m 4.23333,0 v -1.94028 h 1.94028 1.94028 v 1.94028 1.94028 h -1.94028 -1.94028 z m 62.08889,-2.11667 v -4.05694 h 1.94028 1.940283 v 1.91898 1.91898 l -1.32292,0.13838 -1.322923,0.13838 1.322923,0.0593 1.32292,0.0593 v 1.94028 1.94028 h -1.940283 -1.94028 z m 8.113893,2.14607 c 0,-1.19862 0.16437,-1.97721 0.44097,-2.08882 0.35278,-0.14235 0.35278,-0.18351 0,-0.20579 -0.29595,-0.0187 -0.44097,-0.66594 -0.44097,-1.96813 v -1.94027 h 1.94028 1.94028 v 2.11666 2.11667 h 2.11666 2.11667 v 1.94028 1.94028 h -1.92184 -1.92185 l -0.12956,-1.85209 -0.12957,-1.85208 -0.0653,1.85208 -0.0652,1.85209 h -1.94028 -1.94028 z m 53.91945,-0.0299 -0.12084,-1.94076 2.02847,4.8e-4 2.02847,4.8e-4 v 1.94028 1.94028 h -1.90762 -1.90763 z m -186.211113,-4.07622 v -2.09433 l 3.96875,0.0869 3.96875,0.0869 0.10663,1.85208 0.10663,1.85208 -1.69413,0.0437 c -0.93178,0.024 -2.7657,0.094 -4.07538,0.15534 l -2.38125,0.11163 z m 67.29236,1.88374 c -0.92127,-0.13956 -0.97014,-0.24352 -0.97014,-2.06381 v -1.91684 h 1.76389 1.76389 v 2.11666 c 0,2.31507 0.0723,2.26239 -2.55764,1.86399 z m 62.088883,0 c -0.92127,-0.13956 -0.97014,-0.24352 -0.97014,-2.06381 v -1.91684 h 1.76389 1.76389 v 2.11666 c 0,2.31507 0.0723,2.26239 -2.55764,1.86399 z m 61.9125,-0.0342 c -1.13937,-0.10986 -1.14653,-0.12252 -1.14653,-2.02848 v -1.91792 h -1.94027 -1.94028 v -1.94028 -1.94028 h 1.94028 1.94027 v 1.94028 1.94028 l 2.02848,0.0289 c 1.11566,0.0159 2.94128,0.005 4.05694,-0.025 l 2.02847,-0.0538 v 2.14762 2.14762 l -2.91041,-0.0942 c -1.60073,-0.0518 -3.42636,-0.14393 -4.05695,-0.20473 z M 35.447507,254.84075 v -1.94027 h 1.94028 1.94028 v 1.94027 1.94028 h -1.94028 -1.94028 z m -70.20277,-3.88055 v -1.94028 h 1.76389 1.76389 v 1.94028 1.94028 h -1.76389 -1.76389 z m 3.95222,0.001 0.10472,-1.93904 1.85209,-0.001 1.85208,-0.001 v 1.94028 1.94028 h -1.9568 -1.9568 z m 12.27556,-0.001 v -1.94028 h 1.94027 1.94028 v 1.94028 1.94028 h -1.94028 -1.94027 z m 4.23333,0 v -1.94028 h 1.94028 1.94027 v 1.94028 1.94028 h -1.94027 -1.94028 z m 37.39444,0 v -1.94028 h 1.94028 1.94028 v 1.94028 1.94028 h -1.94028 -1.94028 z m 4.23334,0 v -1.94028 h 1.76389 1.76388 v 1.94028 1.94028 h -1.76388 -1.76389 z m 3.88055,0 v -1.94028 h 1.94028 1.94028 v 1.94028 1.94028 h -1.94028 -1.94028 z m 16.58056,0 v -1.94028 h 1.94027 1.94028 v 1.94028 1.94028 h -1.94028 -1.94027 z m 4.23333,0 v -1.94028 h 1.94028 1.94028 v 1.94028 1.94028 h -1.94028 -1.94028 z m 37.04166,0 v -1.94028 h 1.94028 1.94028 v 1.94028 1.94028 h -1.94028 -1.94028 z m 4.23334,0 v -1.94028 h 1.94028 1.94027 v 1.94028 1.94028 h -1.94027 -1.94028 z m 16.580553,0 v -1.94028 h 1.94028 1.94028 v 1.94028 1.94028 h -1.94028 -1.94028 z m 4.23334,0 v -1.94028 h 1.94027 1.94028 v 1.94028 1.94028 h -1.94028 -1.94027 z m 41.275,0 v -1.94028 h 1.94027 1.94028 v 1.94028 1.94028 h -1.94028 -1.94027 z m 16.58055,0 v -1.94028 h 1.94028 1.94028 v 1.94028 1.94028 h -1.94028 -1.94028 z m 4.23333,0 v -1.94028 h 1.94028 1.94028 v 1.94028 1.94028 h -1.94028 -1.94028 z m -219.427773,-4.23333 v -1.94028 h 1.94028 1.94028 v 1.94028 1.94027 h -1.94028 -1.94028 z m 4.23333,0 v -1.94028 h 1.94028 1.94028 v 1.94028 1.94027 h -1.94028 -1.94028 z m 28.92778,0 v -1.94028 h 1.94028 1.94028 v 1.94028 1.94027 h -1.94028 -1.94028 z m 4.23333,0 v -1.94028 l 1.85209,-4.8e-4 1.85208,-4.8e-4 -0.12084,1.94076 -0.12085,1.94075 h -1.73124 -1.73124 z m 20.46112,0 v -1.94028 h 1.94027 1.94028 v 1.94028 1.94027 h -1.94028 -1.94027 z m 4.23333,0 v -1.94028 h 1.94028 1.94028 v 1.94028 1.94027 h -1.94028 -1.94028 z m 37.04167,0 v -1.94028 h 1.94027 1.94028 v 1.94028 1.94027 h -1.94028 -1.94027 z m 4.23333,0 v -1.94028 h 1.94028 1.94027 v 1.94028 1.94027 h -1.94027 -1.94028 z m 20.81389,0 v -1.94028 h 4.05694 4.05694 v 1.94028 1.94027 h -1.92184 -1.92184 l -0.12956,-1.85208 -0.12957,-1.85208 -0.0653,1.85208 -0.0653,1.85208 h -1.94028 -1.94028 z m 37.041663,0 v -1.94028 h 1.94028 1.94028 v 1.94028 1.94027 h -1.94028 -1.94028 z m 4.23333,0 v -1.94028 h 1.94028 1.94028 v 1.94028 1.94027 h -1.94028 -1.94028 z m 24.69445,0 v -1.94028 h 1.94028 1.94027 v 1.94028 1.94027 h -1.94027 -1.94028 z m 4.23333,0 v -1.94028 h 1.94028 1.94028 v 1.94028 1.94027 h -1.94028 -1.94028 z m 28.92778,0 v -1.94028 h 4.05694 4.05695 v 1.94028 1.94027 h -1.74545 -1.74546 l -0.12956,-1.85208 -0.12957,-1.85208 -0.0653,1.85208 -0.0653,1.85208 h -2.11666 -2.11667 z m -227.541663,-4.23334 v -1.94027 h 1.94028 1.94027 v 1.94027 1.94028 h -1.94027 -1.94028 z m 45.50833,0.0223 c 0,-1.89944 0.0111,-1.91929 1.14653002,-2.0602 l 1.14653,-0.14229 -1.14653,-0.0565 -1.14653002,-0.0564 v -1.94028 -1.94028 h -1.94028 -1.94028 v -1.94028 -1.94027 h 1.94028 1.94028 v 1.94027 1.94028 H -0.00665298 1.933627 v 4.05695 4.05694 H -0.00665298 -1.946933 Z m 4.23333,-0.0223 v -1.94027 h 1.94028 1.94028 v 1.94027 1.94028 h -1.94028 -1.94028 z m 8.11389,0 v -1.94027 h 1.94028 1.94028 v 1.94027 1.94028 h -1.94028 -1.94028 z m 53.975,0 v -1.94027 h 1.94028 1.94028 v 1.94027 1.94028 h -1.94028 -1.94028 z m 4.23334,0 v -1.94027 h 1.76388 1.76389 v 1.94027 1.94028 h -1.76389 -1.76388 z m 4.23333,0 v -1.94027 h 1.76389 1.76389 v 1.94027 1.94028 h -1.76389 -1.76389 z m 3.88055,-2.11666 v -4.05695 h 1.94028 1.94028 v 1.91088 c 0,1.19862 -0.16437,1.9772 -0.44097,2.08882 -0.35278,0.14235 -0.35278,0.1835 0,0.20578 0.29595,0.0187 0.44097,0.66595 0.44097,1.96813 v 1.94028 h -1.94028 -1.94028 z m 49.741673,2.11666 v -1.94027 h 1.94028 1.94027 v 1.94027 1.94028 h -1.94027 -1.94028 z m 12.34722,-1.94027 v -3.88056 h 1.94028 1.94028 v 3.88056 3.88055 h -1.94028 -1.94028 z m 2.02112,-0.21314 c -0.11722,-0.11723 -0.42149,-0.12976 -0.67615,-0.0279 -0.28143,0.11261 -0.19783,0.19621 0.21313,0.21313 0.37189,0.0153 0.58025,-0.0681 0.46302,-0.18528 z m 2.21221,2.15341 v -1.94027 h 1.94028 1.94028 v 1.94027 1.94028 h -1.94028 -1.94028 z m 45.50834,0 v -1.94027 h 1.94027 1.94028 v 1.94027 1.94028 h -1.94028 -1.94027 z m -244.122223,-4.03851 v -2.1351 h 1.95788 1.95788 l -0.10579,2.02847 -0.1058,2.02848 -1.85209,0.10663 -1.85208,0.10663 z m 4.23333,-0.0184 v -2.11667 h 1.76389 1.76389 v 2.11667 2.11667 h -1.76389 -1.76389 z m 57.81878,1.85208 c -0.0202,-0.14552 -0.0395,-1.05833 -0.0427,-2.02847 l -0.006,-1.76389 1.80662,-0.10663 1.80662,-0.10663 v 2.1351 2.13511 h -1.76389 c -0.97014,0 -1.78044,-0.11907 -1.80067,-0.26459 z m 8.33881,-0.0176 c -0.10348,-0.10348 -0.18814,-1.03481 -0.18814,-2.06963 v -1.88148 h 1.94027 1.94028 v 2.06963 2.06963 h -1.75213 c -0.96367,0 -1.83679,-0.0847 -1.94028,-0.18815 z m 115.838963,0.0176 c -0.0202,-0.14552 -0.0395,-1.05833 -0.0427,-2.02847 l -0.006,-1.76389 1.80663,-0.10663 1.80662,-0.10663 v 2.1351 2.13511 h -1.76389 c -0.97014,0 -1.78044,-0.11907 -1.80067,-0.26459 z m 4.0604,-0.22422 c -0.10317,-0.26885 -0.13787,-1.18166 -0.0771,-2.02847 l 0.11045,-1.53967 1.85208,-0.10663 1.85208,-0.10663 v 2.1351 2.13511 h -1.77496 c -1.18717,0 -1.83707,-0.16188 -1.96253,-0.48881 z m 58.04175,0.33085 c -0.0129,-0.10715 -0.0341,-1.02826 -0.047,-2.04691 l -0.0235,-1.85208 h 1.89912 1.89912 v 1.94028 1.94028 l -1.85209,0.10663 c -1.01864,0.0586 -1.86266,0.019 -1.8756,-0.0882 z m 4.25685,-1.95871 v -2.11667 h 1.76389 1.76389 v 2.11667 2.11667 h -1.76389 -1.76389 z m -186.549683,-0.0882 0.10663,-1.85208 1.85209,-0.10663 1.85208,-0.10663 v 1.95871 1.95872 h -1.95872 -1.95871 z m 49.67191,-0.0882 v -1.94028 h 1.94028 1.94027 v 1.94028 1.94028 h -1.94027 -1.94028 z m 4.23333,0 v -1.94028 h 1.94028 1.94028 v 1.94028 1.94028 h -1.94028 -1.94028 z m 16.58056,-0.0184 v -1.95871 l 1.85208,0.10663 1.85208,0.10663 0.10663,1.85208 0.10664,1.85209 h -1.95872 -1.95871 z m -144.99167,-3.86218 v -1.94027 h 1.94028 1.94028 v 1.94027 1.94028 h -1.94028 -1.94028 z m 4.23334,0 v -1.94027 h 1.94027 1.94028 v 1.94027 1.94028 h -1.94028 -1.94027 z m 12.34722,0 c 0,-1.83444 0.0481,-1.94027 0.88194,-1.94027 0.70556,0 0.88195,0.17639 0.88195,0.88194 0,0.74475 0.16463,0.88195 1.05833,0.88195 0.94074,0 1.05833,-0.1176 1.05833,-1.05834 0,-0.94074 -0.11759,-1.05833 -1.05833,-1.05833 -0.8937,0 -1.05833,-0.13719 -1.05833,-0.88195 0,-0.74475 0.16463,-0.88194 1.05833,-0.88194 0.8937,0 1.05833,0.13719 1.05833,0.88194 0,0.74476 0.16463,0.88195 1.05834,0.88195 0.886,0 1.05833,-0.1398 1.05833,-0.85851 0,-0.67432 -0.20815,-0.88247 -0.97014,-0.97014 -0.77082,-0.0887 -0.96955,-0.29282 -0.96726,-0.99357 0.003,-0.82567 0.13214,-0.8887 2.02847,-0.98775 l 2.0256,-0.1058 v 1.95789 c 0,1.94024 -0.01,1.95788 -1.05834,1.95788 -0.94074,0 -1.05833,0.11759 -1.05833,1.05833 0,0.94074 -0.11759,1.05834 -1.05833,1.05834 -0.94074,0 -1.05834,0.11759 -1.05834,1.05833 0,1.04764 -0.0196,1.05833 -1.94027,1.05833 h -1.94028 z m 37.39444,0 v -1.94027 h 1.94028 1.94028 v 1.94027 1.94028 h -1.94028 -1.94028 z m 28.92778,0 v -1.94027 h 3.88056 3.88055 v 1.94027 1.94028 h -1.92184 -1.92184 l -0.12957,-1.85208 -0.12957,-1.85208 -0.0653,1.85208 -0.0653,1.85208 h -1.76389 -1.76389 z m 33.16111,-0.0212 v -1.91911 h 3.84503 3.84504 l 0.15221,1.67569 c 0.0837,0.92163 0.0962,1.78523 0.0278,1.91911 -0.0684,0.13388 -1.8672,0.24342 -3.99725,0.24342 h -3.87281 z m 32.80833,0.008 v -1.92671 h 4.05695 4.05694 v 1.92671 1.9267 h -4.05694 -4.05695 z m 37.394443,0.0136 v -1.94027 h 1.94028 1.94028 v 1.94027 1.94028 h -1.94028 -1.94028 z m 4.23334,0 v -1.94027 h 1.94028 1.94027 v 1.94027 1.94028 h -1.94027 -1.94028 z m 12.34722,0 c 0,-1.92068 0.0107,-1.94027 1.05833,-1.94027 0.89371,0 1.05834,0.13719 1.05834,0.88194 0,0.70556 0.17639,0.88195 0.88194,0.88195 0.74475,0 0.88195,0.16462 0.88195,1.05833 0,1.04764 -0.0196,1.05833 -1.94028,1.05833 h -1.94028 z m 49.74167,0 v -1.94027 h 1.94027 1.94028 v 1.94027 1.94028 h -1.94028 -1.94027 z m 12.34722,0 v -1.94027 h 1.94028 1.94027 v 1.94027 1.94028 h -1.94027 -1.94028 z m 4.23333,0 v -1.94027 h 1.94028 1.94028 v 1.94027 1.94028 h -1.94028 -1.94028 z m -62.08889,-1.23472 c 0,-0.94074 -0.11759,-1.05833 -1.05833,-1.05833 -0.8937,0 -1.05833,-0.13719 -1.05833,-0.88195 0,-0.74475 0.16463,-0.88194 1.05833,-0.88194 0.94074,0 1.05833,-0.11759 1.05833,-1.05833 0,-1.04765 0.0196,-1.05834 1.94028,-1.05834 h 1.94028 v 1.94028 c 0,1.83445 -0.0481,1.94028 -0.88195,1.94028 -0.74475,0 -0.88194,0.16463 -0.88194,1.05833 0,0.94074 -0.11759,1.05834 -1.05833,1.05834 -0.94074,0 -1.05834,-0.1176 -1.05834,-1.05834 z m 2.11667,-1.94028 c 0,-0.74475 -0.16463,-0.88194 -1.05833,-0.88194 -0.89371,0 -1.05834,0.13719 -1.05834,0.88194 0,0.74476 0.16463,0.88195 1.05834,0.88195 0.8937,0 1.05833,-0.13719 1.05833,-0.88195 z m -217.311113,-1.05873 v -1.94028 h 1.94028 1.94028 v 1.94028 1.94028 h -1.94028 -1.94028 z m 4.23334,0 v -1.94028 h 1.94027 1.94028 v 1.94028 1.94028 h -1.94028 -1.94027 z m 53.62222,0 v -1.94028 h 1.94028 1.94027 v 1.94028 1.94028 h -1.94027 -1.94028 z m 41.275,0 v -1.94028 h 1.94028 1.94027 v 1.94028 1.94028 h -1.94027 -1.94028 z m 4.23333,0 v -1.94028 h 1.94028 1.94028 v 1.94028 1.94028 h -1.94028 -1.94028 z m 12.34722,0 v -1.94028 h 1.94028 1.94028 v 1.94028 1.94028 h -1.94028 -1.94028 z m 4.23334,0 v -1.94028 h 1.94027 1.94028 v 1.94028 1.94028 h -1.94028 -1.94027 z m 45.50833,0 v -1.94028 h 1.94028 1.94027 v 1.94028 1.94028 h -1.94027 -1.94028 z m 4.23333,0 v -1.94028 h 1.94028 1.940283 v 1.94028 1.94028 h -1.940283 -1.94028 z m 12.347223,0 v -1.94028 h 1.94028 1.94028 v 1.94028 1.94028 h -1.94028 -1.94028 z m 4.23334,0 v -1.94028 h 3.88055 3.88056 v 1.94028 1.94028 h -3.88056 -3.88055 z m 33.16111,0 v -1.94028 h 1.94027 1.94028 v 1.94028 1.94028 h -1.94028 -1.94027 z m 32.80833,0 v -1.94028 h 1.94028 1.94028 v 1.94028 1.94028 h -1.94028 -1.94028 z m 4.23333,0 v -1.94028 h 1.94028 1.94028 v 1.94028 1.94028 h -1.94028 -1.94028 z m 24.69445,0 v -1.94028 h 1.94028 1.94027 v 1.94028 1.94028 h -1.94027 -1.94028 z m 4.23333,0 v -1.94028 h 1.94028 1.94028 v 1.94028 1.94028 h -1.94028 -1.94028 z m -289.630553,-4.23333 v -1.94028 h 1.94028 1.94028 v 1.94028 1.94028 h -1.94028 -1.94028 z m 37.39444,0 v -1.94028 h 3.88056 3.88056 v 1.94028 1.94028 h -3.88056 -3.88056 z m 20.46112,0.0234 c 0,-1.82029 0.0489,-1.92425 0.97013,-2.06381 l 0.97014,-0.14696 -0.97014,-0.0529 c -0.93433,-0.0509 -0.97013,-0.12447 -0.97013,-1.99314 v -1.94027 h 1.94027 1.94028 v 1.91088 c 0,1.19862 -0.16437,1.9772 -0.44097,2.08881 -0.35278,0.14235 -0.35278,0.18351 0,0.20579 0.29595,0.0187 0.44097,0.66594 0.44097,1.96813 v 1.94028 h -1.94028 -1.94027 z m 53.97499,-0.0234 v -1.94028 h 3.88056 3.88056 v 1.94028 1.94028 h -3.88056 -3.88056 z m 8.11389,0 v -1.94028 h 1.94028 1.94028 v 1.94028 1.94028 h -1.94028 -1.94028 z m 57.855563,0 v -1.94028 h 1.94027 1.94028 v 1.94028 1.94028 h -1.94028 -1.94027 z m 4.23333,0 v -1.94028 h 1.94028 1.94028 v 1.94028 1.94028 h -1.94028 -1.94028 z m 45.50833,0 v -1.94028 h 1.94028 1.94028 v 1.94028 1.94028 h -1.94028 -1.94028 z m 25.04722,0 v -1.94028 h 1.94028 1.94028 v 1.94028 1.94028 h -1.94028 -1.94028 z m 41.275,0 v -1.94028 h 1.94028 1.94028 v 1.94028 1.94028 h -1.94028 -1.94028 z m -165.453253,-4.16358 4.8e-4,-2.04691 1.85208,0.10663 1.85209,0.10664 0.10546,1.81843 0.10546,1.81843 -1.95802,0.12185 -1.95803,0.12184 z m -136.52452,-0.0882 v -1.95872 l 1.85209,0.10663 c 1.68809,0.0972 1.8424,0.17635 1.74279,0.89401 -0.0601,0.43306 0.0541,1.06806 0.25385,1.41111 0.29059,0.4991 0.36529,0.32415 0.37388,-0.87557 l 0.0107,-1.4993 h 1.73124 1.73124 l 0.12084,1.94076 0.12084,1.94075 -3.96875,-4.8e-4 -3.96875,-4.8e-4 z m 53.62222,0.0184 v -1.94027 h 1.94028 1.94028 v 1.94027 1.94028 h -1.94028 -1.94028 z m 8.11389,0 v -1.94027 h 1.94028 1.94028 v 1.94027 1.94028 h -1.94028 -1.94028 z m 8.46667,0 v -1.94027 h 1.94028 1.94027 v 1.94027 1.94028 h -1.94027 -1.94028 z m 4.23333,0 v -1.94027 h 1.92267 1.92268 l 0.1058,-2.02848 0.1058,-2.02847 1.85208,-0.005 1.85208,-0.005 v 2.0335 2.03351 h -1.94027 -1.94028 v 1.94027 1.94028 h -1.94028 -1.94028 z m 33.16111,0 v -1.94027 h 1.76389 1.76389 v 1.94027 1.94028 h -1.76389 -1.76389 z m 3.88056,0 v -1.94027 h 1.94028 1.94027 v 1.94027 1.94028 h -1.94027 -1.94028 z m 4.23333,0 v -1.94027 h 1.94028 1.94028 v 1.94027 1.94028 h -1.94028 -1.94028 z m 16.58056,-0.0184 v -1.95872 l 1.85208,0.10663 1.85208,0.10664 0.10663,1.85208 0.10663,1.85208 h -1.95871 -1.95871 z m 45.50833,0.0184 v -1.94027 h 1.94028 1.94027 v 1.94027 1.94028 h -1.94027 -1.94028 z m 4.23333,0 v -1.94027 h 1.94028 1.940283 v 1.94027 1.94028 h -1.940283 -1.94028 z m 12.347223,0 v -1.94027 h 1.94028 1.94028 v 1.94027 1.94028 h -1.94028 -1.94028 z m 4.23334,-0.0184 v -1.95872 l 1.85208,0.10663 1.85208,0.10664 0.10663,1.85208 0.10663,1.85208 h -1.95871 -1.95871 z m 40.98281,0.10663 0.11667,-1.85208 2.02803,-0.1058 2.02804,-0.1058 v 1.95788 1.95788 h -2.1447 -2.14471 z m 4.52552,-0.10663 v -1.95872 l 1.85208,0.10663 1.85209,0.10664 0.10663,1.85208 0.10663,1.85208 h -1.95872 -1.95871 z m 12.34722,0.0184 v -1.94027 h 1.94028 1.94028 v 1.94027 1.94028 h -1.94028 -1.94028 z m 49.52344,0.0882 0.0418,-1.85208 1.85208,-0.10664 1.85209,-0.10663 v 1.95872 1.95871 h -1.89393 -1.89393 z m 4.16854,0 0.10663,-1.85208 h 1.94028 1.94028 l 0.10663,1.85208 0.10663,1.85208 h -2.15354 -2.15354 z m -318.628083,-3.96871 v -1.94028 h 1.94027 1.94028 v 1.94028 1.94028 h -1.94028 -1.94027 z m 4.23333,0 v -1.94028 h 1.94028 1.94027 v 1.94028 1.94028 h -1.94027 -1.94028 z m 12.34722,0 v -1.94028 h 1.94028 1.94028 v 1.94028 1.94028 h -1.94028 -1.94028 z m 49.74167,0.70555 c 0,-1.08185 -0.1092,-1.23472 -0.88195,-1.23472 -0.70555,0 -0.88194,-0.17639 -0.88194,-0.88194 0,-0.77275 -0.15287,-0.88195 -1.23472,-0.88195 h -1.23473 v -3.83439 -3.8344 l 1.32292,-0.21867 c 2.65629,-0.43905 2.55764,-0.54598 2.55764,2.77219 0,2.76342 -0.0553,2.99861 -0.70556,2.99861 -0.54876,0 -0.70555,0.23518 -0.70555,1.05833 0,0.94074 0.11759,1.05833 1.05833,1.05833 0.94584,0 1.05833,-0.11499 1.05833,-1.08176 0,-0.97199 0.0985,-1.07044 0.97014,-0.97014 0.76987,0.0886 0.97014,0.29369 0.97014,0.99357 0,0.69987 -0.20027,0.90499 -0.97014,0.99357 -0.76199,0.0877 -0.97014,0.29583 -0.97014,0.97014 0,0.71872 0.17234,0.85851 1.05834,0.85851 0.8937,0 1.05833,-0.13719 1.05833,-0.88194 0,-0.54877 0.19991,-0.88195 0.52917,-0.88195 0.41157,0 0.52916,0.47037 0.52916,2.11667 v 2.11667 h -1.76388 -1.76389 z m 24.69444,-0.70555 v -1.94028 H -0.00665298 1.933627 v 1.94028 1.94028 H -0.00665298 -1.946933 Z m 4.23333,0 v -1.94028 h 1.94028 1.94028 v 1.94028 1.94028 h -1.94028 -1.94028 z m 8.11389,0 v -1.94028 h 1.82269 c 1.00248,0 1.73357,-0.0891 1.62465,-0.19803 -0.10891,-0.10891 -1.80225,-0.19234 -3.76296,-0.18539 l -3.56493,0.0126 v -1.93127 -1.93127 h 3.88055 3.88056 v 4.05694 4.05695 h -1.94028 -1.94028 z m 4.23334,0 v -1.94028 h 1.94027 1.94028 v 1.94028 1.94028 h -1.94028 -1.94027 z m 4.23333,0 v -1.94028 h 1.94028 1.94028 v 1.94028 1.94028 h -1.94028 -1.94028 z m 37.11226,-0.0882 0.10579,-2.02847 1.94028,-0.0638 c 1.06716,-0.0351 2.37684,-0.0748 2.91042,-0.0882 0.83732,-0.0211 0.97014,-0.16931 0.97014,-1.08275 0,-0.94074 0.11759,-1.05833 1.05833,-1.05833 0.94584,0 1.05833,0.11499 1.05833,1.08176 0,0.97199 0.0985,1.07044 0.97014,0.97014 0.76199,-0.0877 0.99409,-0.31978 1.08177,-1.08176 0.0961,-0.83533 -0.0142,-0.97014 -0.79375,-0.97014 -0.89654,0 -0.90538,-0.0276 -0.90538,-2.82223 v -2.82222 h 1.94028 1.94028 v 3.88056 3.88055 h -1.05834 c -0.8937,0 -1.05833,0.13719 -1.05833,0.88195 0,0.74475 -0.16463,0.88194 -1.05833,0.88194 -0.97434,0 -1.05834,0.098 -1.05834,1.23472 v 1.23473 h -1.92184 -1.92184 l -0.12957,-1.85209 -0.12956,-1.85208 -0.0653,1.85208 -0.0653,1.85209 h -1.95789 -1.95788 z m 8.04329,-1.32291 c 0,-0.74476 -0.16462,-0.88195 -1.05833,-0.88195 -0.8937,0 -1.05833,0.13719 -1.05833,0.88195 0,0.74475 0.16463,0.88194 1.05833,0.88194 0.89371,0 1.05833,-0.13719 1.05833,-0.88194 z m 21.16667,1.39524 v -1.92441 h 3.88055 3.88056 v 1.92794 1.92794 l -3.88056,-0.004 -3.88055,-0.004 z m 32.808333,0.0747 c 0,-1.03481 0.0658,-1.94762 0.14623,-2.02847 0.0804,-0.0808 0.99324,-0.0952 2.02847,-0.0318 l 1.88225,0.11515 -0.12085,1.91332 -0.12084,1.91332 h -1.90763 -1.90763 z m 45.50833,-0.23518 v -2.11667 h -1.94027 -1.94028 v -1.94027 -1.94028 h 1.94028 1.94027 v 1.94028 1.94027 h 1.94028 1.94028 v 2.11667 2.11667 h -1.94028 -1.94028 z m 4.23334,0 c 0,-1.85724 0.0836,-2.11667 0.68212,-2.11667 0.48189,0 0.71489,-0.28478 0.79375,-0.97014 0.0877,-0.76198 0.31978,-0.99408 1.08177,-1.08176 0.87168,-0.1003 0.97014,-0.002 0.97014,0.97014 0,0.96677 0.11249,1.08176 1.05833,1.08176 0.94074,0 1.05833,-0.11759 1.05833,-1.05833 0,-0.82315 -0.15679,-1.05833 -0.70555,-1.05833 -0.51741,0 -0.70556,-0.23519 -0.70556,-0.88195 0,-0.83384 0.10583,-0.88194 1.94028,-0.88194 h 1.94028 v 1.94028 1.94027 h -1.23473 c -1.08185,0 -1.23472,0.1092 -1.23472,0.88195 0,0.70555 -0.17639,0.88194 -0.88194,0.88194 -0.77275,0 -0.88195,0.15287 -0.88195,1.23472 v 1.23473 h -1.94027 -1.94028 z m 3.52778,-1.23472 c 0,-0.74476 -0.16463,-0.88195 -1.05834,-0.88195 -0.8937,0 -1.05833,0.13719 -1.05833,0.88195 0,0.74475 0.16463,0.88194 1.05833,0.88194 0.89371,0 1.05834,-0.13719 1.05834,-0.88194 z m 46.28447,1.32291 0.1058,-2.02847 1.85209,-0.0166 1.85208,-0.0166 v 2.04505 2.04505 h -1.95788 -1.95789 z m 12.27664,0.0882 v -1.94032 h 1.94027 1.94028 v 1.94028 1.94028 h -1.94028 -1.94027 z m 4.23333,0 v -1.94032 h 1.94028 1.94027 v 1.94028 1.94028 h -1.94027 -1.94028 z m -335.13888,-3.67532 c 0,-0.76024 -0.0964,-1.63336 -0.21414,-1.94027 -0.17957,-0.46796 0.10513,-0.55802 1.763887,-0.55802 h 1.97802 v 1.94028 1.94027 h -1.76388 -1.763887 z m 3.880547,-0.55801 v -1.94028 h 1.94028 1.94028 v 1.94028 1.94027 h -1.94028 -1.94028 z m 25.04722,-0.0136 v -1.92671 h 4.05695 4.05694 v 1.92671 1.92671 h -4.05694 -4.05695 z m 74.43611,0.0136 v -1.94028 h 1.94028 1.94028 v 1.94028 1.94027 h -1.94028 -1.94028 z m 66.32223,0 v -1.94028 h 3.88055 3.88056 v 1.94028 1.94027 h -1.92184 -1.92185 l -0.12956,-1.85208 -0.12957,-1.85208 -0.0653,1.85208 -0.0653,1.85208 h -1.76389 -1.76389 z m 8.11388,-1.94028 v -3.88056 h 1.92441 1.92441 l 0.004,3.88056 0.004,3.88055 h -1.92794 -1.92794 z m 4.23334,1.94028 v -1.94028 h 1.94028 1.94027 v 1.94028 1.94027 h -1.94027 -1.94028 z m 41.274993,0 v -1.94028 h 1.94028 1.94028 v 1.94028 1.94027 h -1.94028 -1.94028 z m 33.16112,0 v -1.94028 h 1.94027 1.94028 v 1.94028 1.94027 h -1.94028 -1.94027 z m 53.975,-0.0123 v -1.92794 h 3.88055 3.88056 v 1.92441 1.9244 l -3.88056,0.004 -3.88055,0.004 z m 28.92777,0.0123 v -1.94028 h 1.94028 1.94028 v 1.94028 1.94027 h -1.94028 -1.94028 z m 4.23334,0 v -1.94028 h 1.94027 1.94028 v 1.94028 1.94027 h -1.94028 -1.94027 z m -347.83889,-6.13957 v -3.84651 l 1.79767,-0.12224 c 0.98872,-0.0672 1.85346,-0.0319 1.92165,0.0785 0.0682,0.11041 0.12748,1.89635 0.13177,3.96875 l 0.008,3.768 h -1.92944 -1.92944 z m 41.274997,1.90623 v -1.94028 h 1.94028 1.94028 v 1.94028 1.94028 h -1.94028 -1.94028 z m 25.04722,-0.0112 v -1.95148 l 3.87991,0.0994 3.8799,0.0994 6.5e-4,1.85209 6.6e-4,1.85208 h -3.88056 -3.88056 z m 37.04167,0.0112 v -1.94028 H -0.00665298 1.933627 v 1.94028 1.94028 H -0.00665298 -1.946933 Z m 16.58056,0 v -1.94028 h 1.94027 1.94028 v 1.94028 1.94028 h -1.94028 -1.94027 z m 4.23333,-0.0184 v -1.95872 l 1.85208,0.10663 1.85209,0.10663 0.10663,1.85209 0.10663,1.85208 h -1.95872 -1.95871 z m 41.275,0.19482 v -1.76389 h 1.94028 1.94027 v 1.76389 1.76389 h -1.94027 -1.94028 z m 20.81389,0.0412 c 0,-1.88898 0.3224,-2.14287 2.73403,-2.153 l 1.14652,-0.005 v 1.94028 1.94028 h -1.94027 -1.94028 z m 45.508333,-0.21754 v -1.94028 h 1.94028 1.94027 v 1.94028 1.94028 h -1.94027 -1.94028 z m 4.23333,0 v -1.94028 h 1.76389 1.76389 v 1.94028 1.94028 h -1.76389 -1.76389 z m 16.22778,0 v -1.94028 h -1.94028 -1.94028 v -1.94027 -1.94028 h 1.94028 1.94028 v 1.94028 1.94027 h 1.94028 1.94027 v 1.94028 1.94028 h -1.94027 -1.94028 z m 4.23333,0 v -1.94028 h 1.94028 1.94028 v 1.94028 1.94028 h -1.94028 -1.94028 z m 25.04722,-0.0184 v -1.95872 l 1.85209,0.10663 1.85208,0.10663 0.10663,1.85209 0.10663,1.85208 h -1.95871 -1.95872 z m 28.92778,0.0184 v -1.94028 h 1.94028 1.94028 v 1.94028 1.94028 h -1.94028 -1.94028 z m 41.30447,-1.82772 c 0.004,-2.0724 0.0636,-3.85834 0.13177,-3.96875 0.0682,-0.11041 0.93293,-0.14574 1.92165,-0.0785 l 1.79767,0.12224 v 3.84651 3.84651 h -1.92944 -1.92945 z m -355.98224,-2.05283 v -1.94028 h 1.94028 1.94028 v 1.94028 1.94027 h -1.94028 -1.94028 z m 49.741667,-0.19483 v -2.1351 l 1.85208,0.10663 1.85208,0.10663 0.1058,2.02847 0.1058,2.02847 h -1.95788 -1.95788 z m 4.23082,0.45941 c -10e-4,-0.92163 -0.10371,-2.74726 -0.2274,-4.05694 l -0.2249,-2.38125 h 2.15088 2.15088 l 0.006,4.05694 0.007,4.05694 h -1.92998 -1.92999 z m 8.1164,-0.26458 v -1.94028 h 1.46991 c 0.80844,0 1.37744,-0.0925 1.26443,-0.20547 -0.11301,-0.11301 -1.64759,-0.19423 -3.41019,-0.18048 l -3.20471,0.025 v -1.93619 -1.93618 h 3.88056 3.88055 v 4.05694 4.05694 h -1.94027 -1.94028 z m 4.23333,0 v -1.94028 h 1.94028 1.94028 v 1.94028 1.94027 h -1.94028 -1.94028 z m 20.46111,0 v -1.94028 h 1.94028 1.94028 v 1.94028 1.94027 h -1.94028 -1.94028 z m 12.7,-0.21414 c 0,-1.8196 0.0867,-2.12113 0.55802,-1.94027 0.30691,0.11777 2.14083,0.21413 4.07538,0.21413 h 3.51736 l -0.10663,1.85208 -0.10663,1.85209 -1.82973,0.10585 -1.82974,0.10586 -0.13943,-1.34058 -0.13944,-1.34058 -0.0593,1.32292 -0.0593,1.32291 h -1.94028 -1.94028 z m 32.87892,0.12594 0.1058,-2.02847 1.85209,-0.10663 1.85208,-0.10663 v 2.1351 2.1351 h -1.95788 -1.95788 z m 29.20997,-0.10663 v -2.1351 l 1.85208,0.10663 1.85209,0.10663 0.1058,2.02847 0.1058,2.02847 h -1.95789 -1.95788 z m 4.23333,0.0184 v -2.15354 l 1.80774,0.10663 1.80774,0.10663 0.0443,1.94028 0.0444,1.94028 -1.85209,0.10663 -1.85208,0.10663 z m 28.92778,0.005 v -2.07963 h 3.88055 3.88056 v 2.08317 2.08316 l -3.88056,-0.004 -3.88055,-0.004 z m 49.624073,1.87619 c -0.12935,-0.12935 -0.23518,-1.00248 -0.23518,-1.94028 v -1.70509 h 1.94027 1.94028 v 1.94028 1.94027 h -1.70509 c -0.9378,0 -1.81093,-0.10583 -1.94028,-0.23518 z m 3.99815,-1.70509 v -1.94028 h 1.94028 1.94028 v 1.94028 1.94027 h -1.94028 -1.94028 z m 41.62778,0 v -1.94028 h 1.94028 1.94027 v 1.94028 1.94027 h -1.94027 -1.94028 z m 4.23333,0.0184 v -1.95871 h 1.95871 1.95872 l -0.10663,1.85208 -0.10663,1.85209 -1.85209,0.10663 -1.85208,0.10663 z m 12.34722,-2.11577 v -4.03762 l 1.6757,-0.13213 1.67569,-0.13213 -1.85208,-0.0636 -1.85208,-0.0636 v -1.94028 -1.94028 h 1.94027 1.94028 v 6.17361 6.17361 h -1.76389 -1.76389 z m 3.95115,2.00914 0.1058,-2.02847 1.85208,-0.10663 1.85208,-0.10663 v 2.1351 2.1351 h -1.95788 -1.95788 z m 49.67107,0.0882 v -1.94028 h 1.94028 1.94028 v 1.94028 1.94027 h -1.94028 -1.94028 z m -352.07221,-4.23334 v -1.94027 h 1.940277 1.94027 v 1.94027 1.94028 h -1.94027 -1.940277 z m 4.233327,0 v -1.94027 h 1.94028 1.94028 v 1.94027 1.94028 h -1.94028 -1.94028 z m 78.66945,0 v -1.94027 h 1.94027 1.94028 v 1.94027 1.94028 h -1.94028 -1.94027 z m 4.23333,-2.11666 v -4.05695 h 1.94028 1.94027 v 4.05695 4.05694 h -1.94027 -1.94028 z m 41.275,2.11666 v -1.94027 h 1.94028 1.94027 v 1.94027 1.94028 h -1.94027 -1.94028 z m 20.81389,0 v -1.94027 h 1.94027 1.94028 v 1.94027 1.94028 h -1.94028 -1.94027 z m 45.50833,-0.0949 v -2.03517 l 1.85208,0.0603 1.85208,0.0603 0.1058,1.97488 0.1058,1.97487 h -1.95788 -1.95788 z m 37.041663,0.0949 v -1.94027 h 1.94028 1.94028 v 1.94027 1.94028 h -1.94028 -1.94028 z m 4.46852,1.7051 c -0.12935,-0.12936 -0.23518,-1.00248 -0.23518,-1.94028 v -1.70509 h 1.94027 1.94028 v 1.94027 1.94028 h -1.70509 c -0.9378,0 -1.81093,-0.10583 -1.94028,-0.23518 z m 3.99815,-1.7051 v -1.94027 h 1.94028 1.94028 v 1.94027 1.94028 h -1.94028 -1.94028 z m 49.74167,-2.11666 v -4.05695 h 1.94027 1.94028 v 4.05695 4.05694 h -1.94028 -1.94027 z m 4.23333,2.11666 v -1.94027 h 1.94028 1.94028 v 1.94027 1.94028 h -1.94028 -1.94028 z m 45.50833,0 v -1.94027 h 1.94028 1.94028 v 1.94027 1.94028 h -1.94028 -1.94028 z m 4.23334,0 v -1.94027 h 1.94027 1.94028 v 1.94027 1.94028 h -1.94028 -1.94027 z m -335.491663,-4.23333 v -1.94028 h 1.94027 1.94028 v 1.94028 1.94028 h -1.94028 -1.94027 z m 4.23333,0 v -1.94028 h 1.94028 1.94027 v 1.94028 1.94028 h -1.94027 -1.94028 z m 24.69444,0 v -1.94028 h 1.94028 1.94028 v 1.94028 1.94028 h -1.94028 -1.94028 z m 4.23334,0 v -1.94028 h 1.94027 1.94028 v 1.94028 1.94028 h -1.94028 -1.94027 z m 16.58055,-0.0184 v -1.95871 l 1.85208,0.10663 1.85209,0.10663 0.10663,1.85208 0.10663,1.85209 h -1.95871 -1.95872 z m 4.23333,0 v -1.95871 l 1.85209,0.10663 1.85208,0.10663 0.10663,1.85208 0.10663,1.85209 h -1.95871 -1.95872 z m 16.22778,0.0184 v -1.94028 h 2.11667 2.11667 v 1.94028 1.94028 h -2.11667 -2.11667 z m 41.62778,0 v -1.94028 h 3.88056 3.88055 v 1.94028 1.94028 h -3.88055 -3.88056 z m 16.22778,0 v -1.94028 h 4.05694 4.05695 v 1.94028 1.94028 h -4.05695 -4.05694 z m 8.46666,0 v -1.94028 h 1.94028 1.94028 v 1.94028 1.94028 h -1.94028 -1.94028 z m 53.975,0 v -1.94028 h 3.880563 3.88055 v 1.38226 c 0,0.76024 0.0964,1.63337 0.21413,1.94028 0.18769,0.48909 -0.29167,0.55802 -3.88055,0.55802 h -4.094693 z m 24.694443,0 v -1.94028 h 1.94028 1.94028 v 1.94028 1.94028 h -1.94028 -1.94028 z m 4.23334,0 v -1.94028 h 1.94028 1.94027 v 1.94028 1.94028 h -1.94027 -1.94028 z m 16.29753,0.0882 0.10663,-1.85208 2.02848,-0.1058 2.02847,-0.1058 v 1.95788 1.95789 h -2.1351 -2.13511 z m 58.13858,-0.0882 v -1.94028 h 1.94028 1.94027 v 1.94028 1.94028 h -1.94027 -1.94028 z m 4.23333,0 v -1.94028 h 1.94028 1.94028 v 1.94028 1.94028 h -1.94028 -1.94028 z m 28.92778,0 v -1.94028 h 1.94028 1.94027 v 1.94028 1.94028 h -1.94027 -1.94028 z M -84.496933,193.1044 v -1.94027 h 1.94028 1.94028 v 1.94027 1.94028 h -1.94028 -1.94028 z m 12.34722,-0.0212 v -1.91911 h 3.88056 3.88055 v 1.91911 1.91911 h -3.88055 -3.88056 z m 82.55,0.0212 v -1.94027 h 1.94028 1.94028 v 1.94027 1.94028 h -1.94028 -1.94028 z m 4.23334,0 v -1.94027 h 1.94027 1.94028 v 1.94027 1.94028 h -1.94028 -1.94027 z m 33.16111,0 v -1.94027 h 1.94027 1.94028 v 1.94027 1.94028 h -1.94028 -1.94027 z m 4.23333,0 v -1.94027 h 1.94028 1.94028 v 1.94027 1.94028 h -1.94028 -1.94028 z m 132.291663,0 v -1.94027 h 1.94028 1.94028 v 1.94027 1.94028 h -1.94028 -1.94028 z m -219.427773,-0.35277 v -1.94028 h 1.94028 1.94028 v 1.94028 1.94027 h -1.94028 -1.94028 z m 8.46667,-1.94028 v -3.88056 h 1.9244 1.92441 l 0.004,3.88056 0.004,3.88055 h -1.92794 -1.92794 z m 16.22777,1.94028 v -1.94028 h 1.94028 c 1.80721,0 1.94028,0.0575 1.94028,0.83785 0,0.46081 0.0992,1.33394 0.22049,1.94027 l 0.22048,1.10243 h -2.16076 -2.16077 z m 45.50834,0 v -1.94028 h -1.94028 -1.94028 v -2.11445 c 0,-2.00143 0.0424,-2.10655 0.79375,-1.9665 0.43656,0.0814 1.30969,0.15976 1.94028,0.17418 l 1.14653,0.0262 v 1.94028 1.94028 h 2.11666 2.11667 v 1.94028 1.94027 h -2.11667 -2.11666 z m 70.555553,0 v -1.94028 l -4.14514,-0.0289 c -2.279833,-0.0159 -5.057953,-0.005 -6.173613,0.0249 l -2.02847,0.0539 v -1.96524 -1.96523 h 6.17361 6.173613 v 1.94028 1.94028 h 1.94028 1.94028 v 1.94028 1.94027 h -1.94028 -1.94028 z m 8.46667,0.16739 v -1.77289 l 1.76379,0.0972 1.7638,0.0972 9e-5,1.67569 9e-5,1.67569 h -1.76388 -1.76389 z m 3.88055,-0.16739 v -1.94028 h -1.94028 -1.94027 v -1.94028 -1.94028 h 1.94027 1.94028 v 1.94028 1.94028 h 1.94028 1.94028 v 1.94028 1.94027 h -1.94028 -1.94028 z m 29.01727,-2.01715 0.0869,-3.95743 1.76389,0.10805 c 0.97014,0.0594 1.78718,0.1337 1.81565,0.16506 0.0285,0.0314 0.1665,1.76358 0.30673,3.84938 l 0.25495,3.79236 h -2.15751 -2.15752 z m 62.35218,2.03831 v -1.91911 h 3.88055 3.88056 v 1.91911 1.91911 h -3.88056 -3.88055 z m 16.58055,0 v -1.91911 h 3.88056 3.88055 v 1.91911 1.91911 h -3.88055 -3.88056 z m -306.563883,-3.90148 v -1.94028 h 1.94027 1.94028 v 1.94028 1.94028 h -1.94028 -1.94027 z m 4.23333,-0.0136 V 186.931 h 4.05694 4.05695 v 1.92671 1.92671 h -4.05695 -4.05694 z m 45.50833,0.0136 v -1.94028 h 1.94028 1.94028 v 1.94028 1.94028 h -1.94028 -1.94028 z m 24.69445,0 v -1.94028 h 2.11666 2.11667 v 1.94028 1.94028 h -2.11667 -2.11666 z m 12.34722,0 v -1.94028 h 2.11667 2.11666 v 1.94028 1.94028 h -2.11666 -2.11667 z m 20.81389,-0.17639 c 0,-2.33188 -0.0209,-2.31644 2.55764,-1.89023 l 1.32291,0.21866 v 1.89412 1.89412 h -1.94027 -1.94028 z m 28.92778,0.17639 v -1.94028 h 2.11666 2.11667 v 1.94028 1.94028 h -2.11667 -2.11666 z m 25.04722,-0.001 v -1.93899 h 1.91088 c 1.19862,0 1.9772,0.16437 2.08881,0.44098 0.14235,0.35277 0.18351,0.35277 0.20579,0 0.0185,-0.29323 0.64837,-0.44102 1.87993,-0.4411 l 1.85209,-1.2e-4 -0.0358,1.85221 -0.0358,1.8522 -3.93299,0.0869 -3.93299,0.0869 z m 28.927773,0.001 v -1.94028 h 1.94028 1.94028 v 1.94028 1.94028 h -1.94028 -1.94028 z m 41.30111,-2.31109 -0.003,-4.25137 1.84055,0.10623 1.84054,0.10623 0.10853,1.90689 c 0.0732,1.28667 -0.0415,2.00205 -0.35278,2.19946 -0.35247,0.22354 -0.35727,0.29384 -0.0203,0.29797 0.29867,0.004 0.44097,0.63153 0.44097,1.94568 v 1.94028 h -1.92571 -1.92571 z m 28.90167,2.31109 v -1.94028 h 1.94028 1.94028 v 1.94028 1.94028 h -1.94028 -1.94028 z m 37.46503,-0.0882 0.1058,-2.02848 1.76389,0.009 1.76389,0.009 0.1058,2.01978 0.1058,2.01978 h -1.97549 -1.97549 z m 4.16275,-0.10663 v -2.13511 l 1.85208,0.10663 1.85208,0.10663 0.1058,2.02848 0.1058,2.02847 h -1.95788 -1.95788 z m -289.983333,-4.03851 v -1.94028 h 1.94028 1.94027 v 1.94028 1.94028 h -1.94027 -1.94028 z m 4.23333,0 v -1.94028 h 1.94028 1.94028 v 1.94028 1.94028 h -1.94028 -1.94028 z m 4.23334,0 v -1.94028 h 1.94027 1.94028 v 1.94028 1.94028 h -1.94028 -1.94027 z m 33.16111,0 v -1.94028 h 3.88055 3.88056 v 1.94028 1.94028 h -3.88056 -3.88055 z m 28.92777,0 v -1.94028 h 1.94028 1.94028 v 1.94028 1.94028 h -1.94028 -1.94028 z m 20.46112,0 v -1.94028 h 1.94027 1.94028 v 1.94028 1.94028 h -1.94028 -1.94027 z m 37.39444,0 v -1.94028 h 1.94028 1.94027 v 1.94028 1.94028 h -1.94027 -1.94028 z m 4.23333,0 v -1.94028 h 1.94028 1.94028 v 1.94028 1.94028 h -1.94028 -1.94028 z m 4.23334,0 v -1.94028 h 3.88055 3.88056 v 1.94028 1.94028 h -3.88056 -3.88055 z m 4.13006,-0.26047 c -0.0844,-0.43883 -0.15663,-0.16287 -0.16054,0.61325 -0.004,0.77611 0.0651,1.13515 0.15342,0.79786 0.0883,-0.33729 0.0915,-0.97229 0.007,-1.41111 z m 3.98382,0.26047 v -1.94028 h 1.94028 1.94028 v 1.94028 1.94028 h -1.94028 -1.94028 z m 4.23334,0.0184 v -1.95871 h 1.95871 1.95872 l -0.10664,1.85208 -0.10663,1.85209 -1.85208,0.10663 -1.85208,0.10663 z m 4.23333,-0.0313 v -1.95054 l 3.96875,0.0998 3.96875,0.0998 v 1.76389 1.76389 l -3.96875,0.0869 -3.96875,0.0869 z m 32.808333,0.0129 v -1.94028 h 1.94028 1.94028 v 1.94028 1.94028 h -1.94028 -1.94028 z m 37.39445,-0.17639 v -2.11667 h 1.94027 1.94028 v -1.94028 -1.94027 h 2.11667 2.11666 v 1.94027 1.94028 h -2.11666 -2.11667 v 2.11667 2.11667 h -1.94028 -1.94027 z m 20.46111,0.17639 v -1.94028 h -1.94028 -1.94028 v -2.11667 -2.11666 h 1.94028 1.94028 v 2.11666 2.11667 h 2.11666 2.11667 v 1.94028 1.94028 h -2.11667 -2.11666 z m 37.39444,0 v -1.94028 h 1.94028 1.94028 v 1.94028 1.94028 h -1.94028 -1.94028 z M -1.946933,180.59864 v -2.09906 l -2.02847,-0.1058 -2.02847,-0.1058 -0.10663,-1.85209 -0.10663,-1.85208 h 2.1351 2.1351 v 1.94028 1.94028 H -0.00665298 1.933627 v 2.11666 2.11667 H -0.00665298 -1.946933 Z m -53.975,-0.194 v -1.94027 h 2.11667 2.11666 v -2.11667 -2.11667 h 1.94028 1.94028 v 2.11667 2.11667 h -1.94028 -1.94028 v 1.94027 1.94028 h -2.11666 -2.11667 z m 20.81389,0 v -1.94027 h 1.94028 1.94028 v 1.94027 1.94028 h -1.94028 -1.94028 z m 4.23333,0 v -1.94027 h 1.94028 1.94028 v 1.94027 1.94028 h -1.94028 -1.94028 z m 8.11389,0 v -1.94027 h 2.11667 2.11667 v 1.94027 1.94028 h -2.11667 -2.11667 z m 41.30321,-1.94027 -0.004,-3.88056 h 2.10433 2.10433 v 3.88056 3.88055 h -2.10083 -2.1008 z m 8.43846,1.94027 v -1.94027 h 1.94028 1.94027 v 1.94027 1.94028 h -1.94027 -1.94028 z m 28.92778,0 v -1.94027 h -1.94028 -1.94028 v -4.03851 -4.03851 l 1.85208,-0.12957 1.85209,-0.12956 -1.85209,-0.0653 -1.85208,-0.0653 v -1.92229 -1.92229 l 5.99722,-0.0172 5.99722,-0.0172 v 1.9395 1.9395 h -4.05694 -4.05694 v 4.23333 4.23334 h 2.11666 2.11667 v 1.94027 1.94028 h -2.11667 -2.11666 z m 37.39444,0 v -1.94027 h 1.94028 1.94027 v 1.94027 1.94028 h -1.94027 -1.94028 z m 28.872233,-4.8e-4 -0.12084,-1.94076 2.02847,4.9e-4 2.02847,4.8e-4 v 1.94027 1.94028 h -1.90763 -1.90763 z m 87.1219,0.0887 -0.10663,-1.85208 -2.02848,-0.1058 -2.02847,-0.1058 v -2.09906 -2.09907 h 1.94028 1.94028 v 2.11667 2.11667 h 2.11666 2.11667 v 1.94027 1.94028 h -1.92184 -1.92184 z m -252.519133,-3.96877 v -1.94028 h 3.88056 3.88055 v 1.94028 1.94028 h -3.88055 -3.88056 z m 74.43611,-0.17639 v -2.11667 h 1.94028 1.94028 v 2.11667 2.11667 h -1.94028 -1.94028 z m 4.23333,0 v -2.11667 h 1.92268 1.92267 l 0.1058,-2.02847 0.1058,-2.02847 h 1.94028 1.94027 l 0.1058,2.02847 0.1058,2.02847 h -2.13427 -2.13427 v 2.11667 2.11667 h -1.94028 -1.94028 z m 62.08889,0 v -2.11667 h 1.94028 1.940283 v -1.94027 -1.94028 h 2.11666 2.11667 v 1.94028 1.94027 h -2.11667 -2.11666 v 2.11667 2.11667 h -1.940283 -1.94028 z m 28.722353,1.79329 c -0.081,-0.0808 -0.14735,-0.91429 -0.14735,-1.85209 v -1.70509 h 2.1351 2.13511 l -0.10663,1.85208 -0.10664,1.85209 h -1.88112 c -1.03461,0 -1.94742,-0.0661 -2.02847,-0.14699 z m 37.46294,0.0344 c -0.0982,-0.15892 -0.18209,-1.98455 -0.18638,-4.05695 l -0.008,-3.768 h 2.15759 2.1576 l -0.22816,2.69906 c -0.12548,1.48448 -0.22815,3.31011 -0.22815,4.05694 v 1.35789 h -1.74307 c -0.95869,0 -1.82343,-0.13003 -1.92164,-0.28894 z m 2.51083,-3.80476 c -0.11722,-0.11722 -0.42149,-0.12975 -0.67615,-0.0279 -0.28143,0.11262 -0.19783,0.19621 0.21313,0.21314 0.37189,0.0153 0.58025,-0.0681 0.46302,-0.18529 z m 1.74184,3.85851 c -0.12935,-0.12935 -0.23518,-1.08185 -0.23518,-2.11667 v -1.88148 h 1.94028 1.94027 v 2.11667 2.11667 h -1.70509 c -0.9378,0 -1.81093,-0.10584 -1.94028,-0.23519 z m -186.501843,-2.05783 v -1.94028 h 1.94027 1.94028 v 1.94028 1.94028 h -1.94028 -1.94027 z m -28.92778,-3.97216 v -2.03188 l 1.14653,0.003 c 0.92167,0.003 1.16863,-0.15226 1.25925,-0.79034 0.17104,-1.20426 1.82755,-1.12432 1.82755,0.0882 0,0.74476 0.16463,0.88195 1.05833,0.88195 0.89371,0 1.05834,0.13719 1.05834,0.88194 0,0.74476 -0.16463,0.88195 -1.05834,0.88195 -0.8937,0 -1.05833,-0.13719 -1.05833,-0.88195 0,-0.749 -0.16307,-0.88194 -1.08176,-0.88194 -0.97199,0 -1.07044,0.0984 -0.97014,0.97014 0.0877,0.76199 0.31977,0.99409 1.08176,1.08176 0.76199,0.0877 0.97014,0.29583 0.97014,0.97014 0,0.81411 -0.10948,0.85851 -2.11667,0.85851 h -2.11666 z m 33.16111,-0.10398 v -2.13587 l 1.85208,0.10739 1.85208,0.1074 0.1058,2.02847 0.1058,2.02847 h -1.95788 -1.95788 z m 4.23333,0.19559 v -1.94028 h 1.94028 1.94028 v 1.94028 1.94027 h -1.94028 -1.94028 z m 24.69445,-0.17639 v -2.11667 h 1.94027 1.94028 v 2.11667 2.11666 h -1.94028 -1.94027 z m 33.16111,0.17639 v -1.94028 h 1.94027 1.94028 v 1.94028 1.94027 h -1.94028 -1.94027 z m 78.669443,0 v -1.94028 h 1.94028 1.94027 v 1.94028 1.94027 h -1.94027 -1.94028 z m 45.50833,0 v -1.94028 h 1.94028 1.94028 v 1.94028 1.94027 h -1.94028 -1.94028 z m 28.92778,0 v -1.94028 h 1.94028 1.94027 v 1.94028 1.94027 h -1.94027 -1.94028 z m -242.005553,-2.97059 c 0,-0.46596 -0.33047,-0.7501 -1.05834,-0.90997 -0.88128,-0.19356 -1.05833,-0.40481 -1.05833,-1.26275 0,-1.00766 0.0407,-1.03032 1.85208,-1.03079 l 1.85209,-4.8e-4 -0.12085,1.94076 c -0.10161,1.63195 -0.22791,1.94076 -0.79375,1.94076 -0.42844,0 -0.6729,-0.24614 -0.6729,-0.67753 z m 30.91809,-0.64539 c -0.39884,-2.41296 -0.3544,-2.50554 1.27288,-2.65211 l 1.4993,-0.13504 -1.4993,-0.0616 -1.49931,-0.0616 v -1.94034 -1.94028 h 2.09907 2.09906 l 0.1058,-2.02847 0.1058,-2.02847 h 1.94027 1.94028 l 0.1058,2.02847 0.1058,2.02847 h -2.13427 -2.13427 v 4.05695 4.05694 h -1.89412 -1.89412 z m 20.58746,-0.61736 v -1.94028 h 1.8944 1.8944 l 0.18883,1.6753 c 0.10386,0.92141 0.11513,1.79453 0.0251,1.94027 -0.0901,0.14575 -1.02753,0.26499 -2.08323,0.26499 h -1.91946 z m 33.16111,0 v -1.94028 h 2.11667 2.11667 v 1.94028 1.94028 h -2.11667 -2.11667 z m 20.81389,0 v -1.94028 h 1.94028 1.94028 v 1.94028 1.94028 h -1.94028 -1.94028 z m 16.58056,0 v -1.94028 h 5.99722 5.99722 v 1.94028 1.94028 h -5.99722 -5.99722 z m 12.34722,0 v -1.94028 h 1.94028 1.94027 v 1.94028 1.94028 h -1.94027 -1.94028 z m 4.23333,0 v -1.94028 h 1.94028 1.940283 v 1.94028 1.94028 h -1.940283 -1.94028 z m 8.113893,0 v -1.94028 h 1.94028 1.94028 v 1.94028 1.94028 h -1.94028 -1.94028 z m 25.04722,0 v -1.94028 h 1.94028 1.94028 v 1.94028 1.94028 h -1.94028 -1.94028 z m 28.75139,0.0872 v -1.85106 l 2.02847,-0.1058 2.02847,-0.1058 v 1.95789 1.95788 l -2.02847,-10e-4 -2.02847,-0.001 z m 16.47393,0.001 0.10663,-1.85209 1.7031,-0.10864 c 0.95301,-0.0608 1.92409,0.0748 2.20486,0.30778 0.35885,0.29782 0.50176,0.30364 0.50176,0.0205 0,-0.24478 0.74084,-0.39598 1.94028,-0.39598 h 1.94027 v 1.94028 1.94028 h -4.25177 -4.25177 z m 20.74413,-0.0882 v -1.94028 h 1.94027 1.94028 v 1.94028 1.94028 h -1.94028 -1.94027 z m -86.78334,-4.06901 c 0,-2.12573 0.001,-2.12851 0.97014,-1.96929 0.53358,0.0877 1.4067,0.17251 1.94028,0.18846 0.93722,0.028 0.97014,0.0948 0.97014,1.96929 v 1.94027 h -1.94028 -1.94028 z m 24.85543,1.7516 c -0.068,-0.11041 -0.12723,-1.89635 -0.13151,-3.96875 l -0.008,-3.768 h 2.10454 2.10454 l -0.0869,3.92344 -0.0869,3.92344 -1.88612,0.0453 c -1.03737,0.0249 -1.9418,-0.045 -2.00984,-0.15544 z m 20.65291,-1.56314 v -1.94028 h 1.94027 1.94028 v 1.94028 1.94027 h -1.94028 -1.94027 z m -194.640543,-2.38125 0.0836,-3.96875 h 1.94028 1.94028 l 0.0836,3.96875 0.0836,3.96875 h -2.10747 -2.10747 z m 49.64887,2.02847 v -1.94028 h 1.94028 1.94028 v 1.94028 1.94028 h -1.94028 -1.94028 z m 28.99754,0.0882 0.10663,-1.85208 h 1.94028 1.94027 l 0.10664,1.85208 0.10663,1.85209 h -2.15354 -2.15354 z m 25.04722,0.015 0.10663,-1.83711 5.90903,-0.10236 5.90903,-0.10236 v 1.93947 1.93947 h -3.86123 -3.86123 l -0.13213,-1.6757 -0.13213,-1.67569 -0.0636,1.67569 -0.0636,1.6757 h -1.95871 -1.95871 z m 12.34722,-0.015 0.10663,-1.85208 h 1.89073 1.89073 l 0.0525,1.85208 0.0525,1.85209 h -2.04986 -2.04986 z m 107.527463,0.0882 v -1.76389 h 1.94028 1.94028 v 1.76389 1.76389 h -1.94028 -1.94028 z m 4.23334,0 v -1.76389 h 1.91088 c 1.20842,0 1.96953,0.1621 2.07042,0.44097 0.0877,0.24254 0.14067,-0.74965 0.11759,-2.20486 l -0.042,-2.64583 2.01821,-0.1055 2.01821,-0.10549 -0.007,4.07424 -0.007,4.07425 h -4.04014 -4.04014 z m 5.73264,-1.99753 c -0.24254,-0.0979 -0.63941,-0.0979 -0.88195,0 -0.24253,0.0979 -0.0441,0.17794 0.44097,0.17794 0.48507,0 0.68351,-0.0801 0.44098,-0.17794 z M 6.399917,161.62256 c -0.1006,-0.16276 -0.18554,-1.99619 -0.18877,-4.07429 l -0.006,-3.77835 h 2.09621 2.09622 l -0.0869,3.96875 -0.0869,3.96875 -1.82055,0.10554 c -1.0013,0.058 -1.90285,-0.0276 -2.00344,-0.1904 z m 29.04759,-1.67903 v -1.94027 h 1.94028 1.94028 v 1.94027 1.94028 h -1.94028 -1.94028 z m 24.69445,0 v -1.94027 h 1.94028 1.94027 v 1.94027 1.94028 h -1.94027 -1.94028 z m 20.81389,0 v -1.94027 h 1.94028 1.94027 v 1.94027 1.94028 h -1.94027 -1.94028 z m 33.161113,0.0203 v -1.92 l 1.4993,-0.13504 1.49931,-0.13504 -1.46526,-0.0616 -1.46526,-0.0616 -0.12224,-1.79346 c -0.0672,-0.9864 -0.0561,-1.85953 0.0248,-1.94028 0.0808,-0.0808 0.99366,-0.14682 2.02847,-0.14682 h 1.88148 v 1.91088 c 0,1.19862 -0.16437,1.97721 -0.44097,2.08882 -0.35278,0.14235 -0.35278,0.1835 0,0.20578 0.29595,0.0187 0.44097,0.66595 0.44097,1.96813 v 1.94021 h -1.94028 -1.94027 z m 37.04166,-0.0203 v -1.94027 h 1.94028 1.94028 v 1.94027 1.94028 h -1.94028 -1.94028 z m -165.452773,-0.35277 v -1.94028 h 1.94028 1.94027 v 1.94028 1.94027 h -1.94027 -1.94028 z m -20.81389,-5.99722 v -4.05695 h 1.94028 1.94028 v 4.05695 4.05694 h -1.94028 -1.94028 z m 16.58056,2.11666 v -1.94028 h 1.94027 1.94028 v 1.94028 1.94028 h -1.94028 -1.94027 z m 16.58055,0 c 0,-1.92068 0.0107,-1.94028 1.05833002,-1.94028 0.89371,0 1.05834,0.1372 1.05834,0.88195 0,0.70555 0.17639,0.88194 0.88193998,0.88194 0.74476,0 0.88195,0.16463 0.88195,1.05833 0,1.04765 -0.0196,1.05834 -1.94027998,1.05834 H -1.946933 Z m 37.18348,1.44821 c -0.10386,-0.27064 -0.13856,-1.10407 -0.0771,-1.85208 l 0.1117,-1.36002 2.02847,-0.1058 2.02847,-0.1058 v 1.95789 1.95788 h -1.95135 c -1.34371,0 -2.01014,-0.15323 -2.14017,-0.49207 z m 20.67208,-1.44821 v -1.94028 h 2.15441 c 1.8196,0 2.12113,0.0867 1.94027,0.55802 -0.11777,0.30691 -0.21413,1.18004 -0.21413,1.94028 v 1.38226 h -1.94028 -1.94027 z m 28.92777,0 v -1.94028 h 4.05695 4.05694 v 1.94028 1.94028 h -4.05694 -4.05695 z m 8.46667,0 v -1.94028 h 1.94028 1.94027 v 1.94028 1.94028 h -1.94027 -1.94028 z m 12.347223,0 v -1.94028 h 1.94028 1.94028 v 1.94028 1.94028 h -1.94028 -1.94028 z m 33.16111,0 v -1.94028 h 1.94028 1.94028 v 1.94028 1.94028 h -1.94028 -1.94028 z m 8.46667,0 v -1.94028 h 1.94027 1.94028 v 1.94028 1.94028 h -1.94028 -1.94027 z m 41.06086,1.38226 c 0.11778,-0.30691 0.21414,-0.78316 0.21414,-1.05833 0,-0.27518 0.30488,-0.50032 0.67752,-0.50032 0.4688,0 0.75051,-0.33229 0.91443,-1.07863 0.20066,-0.91356 0.3804,-1.06203 1.17456,-0.97014 0.87922,0.10173 0.94425,0.2349 1.04345,2.13697 l 0.1058,2.02847 h -2.17201 c -1.83566,0 -2.13886,-0.0864 -1.95789,-0.55802 z M 1.933627,154.29909 c 0,-0.70555 -0.17639,-0.88194 -0.88195,-0.88194 -0.70554998,0 -0.88193998,-0.17639 -0.88193998,-0.88195 0,-0.70555 0.17639,-0.88194 0.88193998,-0.88194 0.70556,0 0.88195,0.17639 0.88195,0.88194 0,0.74475 0.16463,0.88195 1.05833,0.88195 0.8965,0 1.05833,-0.13622 1.05833,-0.89077 0,-0.69139 -0.21903,-0.93457 -0.97863,-1.08649 l -0.97863,-0.19572 0.0501,-2.88226 c 0.0275,-1.58525 0.071,-3.79508 0.0967,-4.91074 l 0.0466,-2.02847 h 1.92794 1.92794 l -0.004,3.95778 c -0.002,2.69891 -0.13879,4.04371 -0.42863,4.22794 -0.32674,0.20767 -0.32306,0.27139 0.0159,0.27555 0.29326,0.004 0.44097,0.59624 0.44097,1.76929 0,1.72469 -0.0235,1.76389 -1.05833,1.76389 -0.89371,0 -1.05834,0.13719 -1.05834,0.88194 0,0.74475 -0.16463,0.88194 -1.05833,0.88194 -0.8937,0 -1.05833,-0.13719 -1.05833,-0.88194 z m 184.149993,0 c 0,-0.70555 -0.17639,-0.88194 -0.88194,-0.88194 -0.83384,0 -0.88195,-0.10584 -0.88195,-1.94028 v -1.94028 h 1.94028 c 1.92068,0 1.94028,0.0107 1.94028,1.05833 0,0.89371 0.13719,1.05834 0.88194,1.05834 0.70556,0 0.88195,0.17639 0.88195,0.88194 0,0.70556 -0.17639,0.88195 -0.88195,0.88195 -0.70555,0 -0.88194,0.17639 -0.88194,0.88194 0,0.74475 -0.16463,0.88194 -1.05833,0.88194 -0.89371,0 -1.05834,-0.13719 -1.05834,-0.88194 z m 2.11667,-1.76389 c 0,-0.74475 -0.16463,-0.88194 -1.05833,-0.88194 -0.89371,0 -1.05834,0.13719 -1.05834,0.88194 0,0.74475 0.16463,0.88195 1.05834,0.88195 0.8937,0 1.05833,-0.1372 1.05833,-0.88195 z m -214.841663,-1.05833 v -1.94028 h 4.05694 4.05695 v 1.94028 1.94028 h -4.05695 -4.05694 z m 57.50277,0 v -1.94028 h 2.11667 2.11667 v 1.94028 1.94028 h -2.11667 -2.11667 z m 16.65032,0.0882 0.10663,-1.85208 4.14514,-0.0994 4.14514,-0.0994 v 1.95147 1.95147 h -4.25177 -4.25177 z m 12.63024,-0.0882 v -1.94028 h 1.94028 1.94027 v 1.94028 1.94028 h -1.94027 -1.94028 z m 20.81389,0 v -1.94028 h 1.94028 1.94027 v 1.94028 1.94028 h -1.94027 -1.94028 z m 16.58055,-0.0115 v -1.95183 l 3.968753,0.0997 3.96875,0.0998 0.10663,1.85208 0.10663,1.85208 h -4.07538 -4.075383 z m 12.347223,0.0115 v -1.94028 h 1.94028 1.94028 v 1.94028 1.94028 h -1.94028 -1.94028 z m 4.23334,0 v -1.94028 h 3.88055 3.88056 v 1.94028 1.94028 h -3.88056 -3.88055 z m 12.34722,0 v -1.94028 h 1.94028 1.94027 v 1.94028 1.94028 h -1.94027 -1.94028 z m 4.23333,0.0123 v -1.92794 l 3.88056,0.003 3.88055,0.004 v 1.92441 1.92441 h -3.88055 -3.88056 z m 8.11389,-0.0123 v -1.94028 h 1.94028 1.94028 v 1.94028 1.94028 h -1.94028 -1.94028 z m 4.23333,-0.0176 v -1.95788 l 2.02848,0.1058 2.02847,0.10579 0.10663,1.85209 0.10663,1.85208 h -2.1351 -2.13511 z m -20.81389,-3.86295 v -1.94028 h 1.94028 1.94028 v 1.94028 1.94028 h -1.94028 -1.94028 z m 25.04723,0 v -1.94028 h 1.94027 1.94028 v 1.94028 1.94028 h -1.94028 -1.94027 z m -178.152783,-2.38125 v -3.96875 h 1.94028 1.94028 v 3.96875 3.96875 h -1.94028 -1.94028 z m 61.80587,2.11666 0.10663,-1.85208 2.02847,-0.1058 2.02848,-0.1058 v 1.95789 1.95788 h -2.13511 -2.1351 z m 12.63024,-0.0882 v -1.94027 h 1.94028 1.94028 v 1.94027 1.94028 h -1.94028 -1.94028 z m 20.81389,0.0105 v -1.92978 l 3.96875,0.0777 3.96875,0.0777 0.20916,1.76389 0.20916,1.76389 0.0554,-1.85208 0.0554,-1.85209 h 1.76389 1.76389 v 1.94028 1.94028 h -5.99722 -5.99722 z m 12.34722,-0.0105 v -1.94027 h 1.94028 1.94028 v 1.94027 1.94028 h -1.94028 -1.94028 z m 24.828993,0.0882 0.0418,-1.85208 h 2.02911 2.02912 l -6.5e-4,-2.02847 -6.4e-4,-2.02847 h 1.94028 1.94028 v 3.88055 3.88056 h -4.0106 -4.01059 z m 78.5349,-2.02847 v -3.88055 h 1.94028 1.94028 v 3.88056 3.88055 h -1.94028 -1.94028 z M 6.519737,143.36299 v -1.94028 h 1.94028 1.94027 v 1.94028 1.94028 h -1.94027 -1.94028 z m 20.46111,0 v -1.94028 h 1.94028 1.94027 v 1.94028 1.94028 h -1.94027 -1.94028 z m 12.34722,0 v -1.94028 h 1.94028 1.94028 v 1.94028 1.94028 h -1.94028 -1.94028 z m 20.81389,0 v -1.94028 h 1.94028 1.94027 v 1.94028 1.94028 h -1.94027 -1.94028 z m 20.81389,-0.21413 c 0,-1.81961 0.0867,-2.12114 0.55802,-1.94028 0.30691,0.11777 1.18003,0.21413 1.94028,0.21413 h 1.38225 v 1.94028 1.94028 h -1.94027 -1.94028 z m 37.041663,0.23173 v -1.95788 h 2.1351 2.13511 l -0.10663,1.85209 -0.10663,1.85208 -2.02848,0.1058 -2.02847,0.1058 z m 8.46667,-0.0176 v -1.94028 h 1.94028 1.94027 v 1.94028 1.94028 h -1.94027 -1.94028 z m 24.69444,-0.17638 v -2.11667 h 1.94028 1.94028 v 2.11667 2.11666 h -1.94028 -1.94028 z m -177.799993,-4.05695 v -1.94028 h 1.94027 1.94028 v 1.94028 1.94027 h -1.94028 -1.94027 z m 24.69444,0 v -1.94028 H -0.00665298 1.933627 v 1.94028 1.94027 H -0.00665298 -1.946933 Z m 12.34722,0 v -1.94028 h 1.94028 1.94028 v 1.94028 1.94027 h -1.94028 -1.94028 z m 16.58056,0 v -1.94028 h 1.94028 1.94027 v 1.94028 1.94027 h -1.94027 -1.94028 z m 8.11389,0 v -1.94028 h 4.05694 4.05695 v 1.94028 1.94027 h -4.05695 -4.05694 z m 8.46666,0 v -1.94028 h 1.94028 1.94028 v 1.94028 1.94027 h -1.94028 -1.94028 z m 8.11389,0 v -1.94028 h 1.94028 1.94028 v 1.94028 1.94027 h -1.94028 -1.94028 z m 4.23334,0 v -1.94028 l 2.02847,0.002 2.02847,0.002 0.0947,1.93789 0.0947,1.93788 h -2.12319 -2.12319 z m 29.28055,0 v -1.91314 h 4.05694 4.05695 v 1.91314 1.91314 h -4.05695 -4.05694 z m 16.580553,1.10243 c 0,-0.46082 -0.0992,-1.33394 -0.22048,-1.94028 l -0.22049,-1.10243 h 4.10104 4.10105 v 1.94028 1.94027 h -3.88056 c -3.84961,0 -3.88056,-0.007 -3.88056,-0.83784 z m 8.11389,-1.10243 v -1.91314 h 4.05695 4.05694 v 1.91314 1.91314 h -4.05694 -4.05695 z m 16.58056,0 v -1.94028 h 1.94028 1.94027 v 1.94028 1.94027 h -1.94027 -1.94028 z m 28.92778,0 v -1.94028 h 1.94027 1.94028 v 1.94028 1.94027 h -1.94028 -1.94027 z m 20.81388,0 v -1.94028 h 1.94028 1.94028 v 1.94028 1.94027 h -1.94028 -1.94028 z m -202.847213,-4.23334 v -1.94027 h 1.94027 1.94028 v 1.94027 1.94028 h -1.94028 -1.94027 z m 20.55059,-2.02847 0.0869,-3.96875 h 1.85208 c 1.01865,0 1.85208,0.11906 1.85208,0.26458 0,0.14553 0,1.93146 0,3.96875 v 3.70417 h -1.93898 -1.93899 z m 20.72441,2.02847 v -1.94027 h 1.94027 1.94028 v 1.94027 1.94028 h -1.94028 -1.94027 z m 8.17075,-0.17703 0.11952,-2.11731 -2.22329,6.4e-4 -2.2233,6.5e-4 0.10663,-1.85209 0.10663,-1.85208 3.96875,-0.0777 3.96875,-0.0777 v 4.04645 4.04645 h -1.97161 -1.97161 z m 4.17647,0.17703 v -1.94027 h 1.94028 1.94027 v 1.94027 1.94028 h -1.94027 -1.94028 z m 4.23572,-2.02847 0.002,-3.96875 1.93789,-0.0947 1.93789,-0.0947 v 4.06347 4.06347 h -1.94028 -1.94028 z m 16.57817,2.05126 v -1.91749 l 4.05694,-0.005 4.05695,-0.005 v 1.92238 1.92237 h -1.86973 c -1.02834,0 -2.06022,-0.1905 -2.29305,-0.42333 -0.32926,-0.32926 -0.42334,-0.32926 -0.42334,0 0,0.27281 -0.62716,0.42333 -1.76388,0.42333 h -1.76389 z m 41.27499,-0.0228 v -1.91314 h 4.05695 4.05694 v 1.91314 1.91314 h -4.05694 -4.05695 z m 8.46667,0 v -1.94028 h 1.94028 1.940283 v 1.94028 1.94028 h -1.940283 -1.94028 z m 16.227783,0 v -1.94028 h 4.05694 4.05695 v 1.94028 1.94028 h -4.05695 -4.05694 z m 16.72844,-0.002 -0.0285,-1.93815 h 2.05698 2.05697 v 1.94027 1.94028 l -2.02848,-0.002 -2.02847,-0.002 z m 24.89934,0.002 v -1.94028 h 1.94027 1.94028 v 1.94028 1.94028 h -1.94028 -1.94027 z m 4.23333,0 v -1.94028 h 1.94028 1.94027 v 1.94028 1.94028 h -1.94027 -1.94028 z m 12.34722,0 v -1.94028 h 1.94028 1.94028 v 1.94028 1.94028 h -1.94028 -1.94028 z m -87.400693,-2.20732 -3.61597,-0.11041 v -1.91437 -1.91437 h 4.07414 4.07414 l -0.10539,1.98703 c -0.058,1.09287 -0.26414,2.00402 -0.45817,2.02478 -0.19403,0.0208 -1.97997,-0.0119 -3.96875,-0.0727 z m 0.51355,-2.64337 c -0.0841,-0.43656 -0.15288,-0.0794 -0.15288,0.79375 0,0.87312 0.0688,1.23031 0.15288,0.79375 0.0841,-0.43656 0.0841,-1.15094 0,-1.5875 z m 42.701723,2.65671 -1.32291,-0.14166 v -1.93742 -1.93742 l 1.85208,0.10663 1.85208,0.10663 v 1.93545 c 0,2.11259 -0.0114,2.12157 -2.38125,1.86779 z m 6.92299,-0.26389 c -0.12041,-0.31378 -0.14675,-1.31787 -0.0585,-2.23131 l 0.16038,-1.66082 -2.05721,0.11953 -2.05721,0.11953 v -1.97161 -1.97161 h 3.83241 3.83242 l 0.25033,3.73715 c 0.13769,2.05544 0.15387,3.83364 0.036,3.95155 -0.11791,0.11791 -1.00307,0.27371 -1.96701,0.34623 -1.37112,0.10315 -1.80027,0.008 -1.97154,-0.43864 z m 0.10162,-6.97893 c -0.0979,-0.24254 -0.17793,-0.0441 -0.17793,0.44097 0,0.48507 0.0801,0.68351 0.17793,0.44097 0.0979,-0.24253 0.0979,-0.63941 0,-0.88194 z m 28.80789,6.93131 c -0.11036,-0.28758 -0.1288,-1.27068 -0.041,-2.18467 l 0.15968,-1.66178 -2.14469,9.7e-4 -2.1447,9.7e-4 -0.10663,-1.85208 -0.10663,-1.85208 h 4.29417 4.29417 l -0.14985,2.07166 -0.14985,2.07167 2.04795,-0.0432 2.04796,-0.0432 -2.3e-4,2.00731 -2.3e-4,2.0073 h -3.89975 c -3.12017,0 -3.93986,-0.10452 -4.10039,-0.52288 z M -22.718483,128.7227 v -3.88055 h 2.08316 2.08316 l -0.004,3.88055 -0.004,3.88056 h -2.07963 -2.07963 z m 78.62711,1.94028 v -1.94028 h 1.94027 1.94028 v 1.94028 1.94028 h -1.94028 -1.94027 z m 4.23333,0 v -1.94028 h 1.94028 1.94027 v 1.94028 1.94028 h -1.94027 -1.94028 z m 62.088883,0 v -1.94028 h 1.94028 1.94028 v 1.94028 1.94028 h -1.94028 -1.94028 z M -10.060823,126.5876 v -2.1351 l 1.85208,0.10663 1.85209,0.10663 0.1058,2.02847 0.1058,2.02847 h -1.95789 -1.95788 z m 24.69445,0.19482 v -1.94027 h 1.94027 1.94028 v 1.94027 1.94028 h -1.94028 -1.94027 z m 12.34722,0 v -1.94027 h 1.94028 1.94027 v 1.94027 1.94028 h -1.94027 -1.94028 z m 37.39396,-0.0882 -4.8e-4,-2.02847 1.94076,0.12085 1.94076,0.12084 v 1.90763 1.90763 h -1.94028 -1.94028 z m 12.3477,0.0882 v -1.94027 h 1.94028 1.94028 v 1.94027 1.94028 h -1.94028 -1.94028 z m 62.088893,0 v -1.94027 h 1.94028 1.94028 v 1.94027 1.94028 h -1.94028 -1.94028 z m -157.338883,-4.23333 v -1.94028 h 1.94027 1.94028 v 1.94028 1.94028 h -1.94028 -1.94027 z m 4.23333,0 v -1.94028 h 1.94028 1.94027 v 1.94028 1.94028 h -1.94027 -1.94028 z m 24.69444,0 v -1.94028 h -1.94027 -1.94028 v -4.05694 -4.05695 h 1.96523 1.96523 l -0.0539,2.02848 c -0.0296,1.11566 -0.0408,2.94128 -0.0249,4.05694 l 0.0289,2.02847 h 2.11667 2.11666 v 1.94028 1.94028 h -2.11666 -2.11667 z m 12.34723,0.0176 v -1.92267 l -2.02848,-0.1058 -2.02847,-0.1058 v -1.89441 -1.8944 l 1.94028,-0.0459 1.94028,-0.0459 0.1058,2.02847 0.1058,2.02847 h 2.09906 2.09906 v 1.94028 1.94028 h -2.11667 -2.11666 z m 45.86111,0.54042 c 0,-0.76025 -0.0964,-1.63337 -0.21414,-1.94028 -0.18085,-0.4713 0.12068,-0.55802 1.94028,-0.55802 h 2.15441 v 1.94028 1.94027 h -1.94028 -1.94027 z m 4.23333,-0.55802 v -1.94028 h 1.94028 1.94027 v 1.94028 1.94027 h -1.94027 -1.94028 z m 70.202773,0 v -1.94028 h 1.94028 1.94028 v 1.94028 1.94027 h -1.94028 -1.94028 z m 4.23334,0 v -1.94028 h 3.88055 3.88056 v 1.94028 1.94027 h -1.92184 -1.92185 l -0.12956,-1.85208 -0.12957,-1.85208 -0.0653,1.85208 -0.0653,1.85208 h -1.76388 -1.76389 z m 8.11389,0 v -1.94028 h 1.94027 1.94028 v 1.94028 1.94027 h -1.94028 -1.94027 z m -169.210213,-2.91583 c -0.22332,-0.14255 -0.40588,-0.85449 -0.40569,-1.5821 l 3.4e-4,-1.32291 h 1.81935 1.81935 l -0.12431,1.56304 c -0.10187,1.28085 -0.24564,1.55391 -0.7963,1.51243 -0.84327,-0.0635 -0.88948,-0.59729 -0.0546,-0.63082 0.52418,-0.0211 0.51087,-0.0676 -0.0882,-0.30864 -0.38805,-0.15611 -0.82462,-0.21496 -0.97014,-0.13077 -0.14552,0.0842 -0.26458,-0.0944 -0.26458,-0.39692 0,-0.9298 -0.54687,-0.60802 -0.62776,0.36937 -0.057,0.68842 0.0566,0.86843 0.45222,0.71663 0.29058,-0.1115 0.52832,-0.049 0.52832,0.13897 0,0.40171 -0.70916,0.4412 -1.28799,0.0717 z m -0.4759,-5.37446 v -2.11666 h 1.94028 1.94027 v 2.11666 2.11667 h -1.94027 -1.94028 z m 28.92778,0 v -2.11666 h 1.94027 1.94028 v 2.11666 2.11667 h -1.94028 -1.94027 z m -24.81204,-2.35185 c -0.12935,-0.12935 -0.23519,-1.00248 -0.23519,-1.94028 v -1.70509 h 2.11667 2.11667 v 1.94028 1.94028 h -1.88148 c -1.03482,0 -1.98732,-0.10584 -2.11667,-0.23519 z m 12.54145,-3.73356 0.0997,-3.96875 1.85209,-0.10663 1.85208,-0.10663 v 4.07538 4.07538 h -1.95183 -1.95183 z m 4.1567,2.02847 v -1.94028 h 4.09469 c 3.58888,0 4.06823,0.0689 3.88055,0.55802 -0.11777,0.30691 -0.21413,1.18004 -0.21413,1.94028 v 1.38226 h -3.88056 -3.88055 z m -8.35739,-2.51728 c -0.0846,-0.22034 -0.10409,-1.09343 -0.0433,-1.94021 l 0.11045,-1.5396 1.85208002,-0.1163 1.85208998,-0.1163 v 2.08949 2.08949 l -1.80873998,-0.033 c -0.99507,-0.0181 -1.87793002,-0.2132 -1.96254002,-0.43359 z m -4.27285,-1.62786 0.10663,-1.85208 1.85208,-0.10663 1.85208,-0.10663 v 1.95871 1.95871 h -1.95871 -1.95871 z"
       id="path1" /></g></svg>
